Coordinates
version=1
nRows=6
nColumns=36
inDegrees=yes

Units are S.I. units (second, meters, Newtons, ...)
If the header above contains a line with 'inDegrees', this indicates whether rotational values are in degrees (yes) or radians (no).

endheader
time	pelvis_tilt	pelvis_list	pelvis_rotation	pelvis_tx	pelvis_ty	pelvis_tz	hip_flexion_r	hip_adduction_r	hip_rotation_r	knee_angle_r	knee_angle_r_beta	ankle_angle_r	subtalar_angle_r	mtp_angle_r	hip_flexion_l	hip_adduction_l	hip_rotation_l	knee_angle_l	knee_angle_l_beta	ankle_angle_l	subtalar_angle_l	mtp_angle_l	lumbar_extension	lumbar_bending	lumbar_rotation	arm_flex_r	arm_add_r	arm_rot_r	elbow_flex_r	pro_sup_r	arm_flex_l	arm_add_l	arm_rot_l	elbow_flex_l	pro_sup_l
      0.00000000	     -0.74811137	      0.70400064	     -0.90512620	     -0.98673365	      1.30136645	     -0.07868442	      2.44813448	     -2.83544437	      1.78075262	      5.11663293	      0.08930209	      6.23865727	     -5.08427915	     -6.67869107	      2.06223740	     -0.11219103	      3.64149596	      5.90659662	      0.10308956	      6.52936537	     -1.37825942	     -6.67869107	     -9.82862713	     -0.95379018	     -0.18734200	     18.78953463	     -4.90540060	     24.18185847	    130.66853930	    104.00733275	     18.42579061	     -6.08654721	     23.67199287	    124.98621857	    102.75804579
      0.00416670	     -1.97479421	      0.30465871	     -0.08150621	     -0.98640900	      1.29874132	     -0.07891315	      2.92935055	     -2.15174948	      2.37947859	      3.93941892	      0.06875583	      7.80532172	     -2.92975155	     -6.86626772	      2.75453161	     -0.44258995	      5.06945635	      4.42013528	      0.07714591	      5.12934802	     -0.93560217	     -6.86626772	     -8.09922621	     -0.57476119	     -0.08724837	     18.08753501	     -5.02485034	     23.37252101	    131.31256193	    100.66169193	     18.06088951	     -5.58716398	     23.13809296	    124.87319900	     99.16209208
      0.00833330	     -2.63213991	      0.51256921	     -0.30509442	     -0.98650199	      1.29826541	     -0.07812429	      3.21328747	     -2.22036844	      2.37356819	      2.95914886	      0.05164689	      8.30781813	     -2.63454015	     -6.91301716	      3.28797303	     -0.25210630	      4.58443293	      3.92895621	      0.06857322	      4.51686753	     -0.51550807	     -6.91301716	     -7.72254540	     -0.97850140	      0.32963501	     16.57640938	     -4.84060537	     23.44083228	    131.87931429	    100.82755325	     17.95174201	     -5.15622459	     22.41192070	    125.44255580	     98.41977614
      0.01250000	     -2.32192221	      0.53269196	     -0.21574232	     -0.98686662	      1.29907386	     -0.07804388	      2.65343297	     -2.22416283	      2.42241874	      2.42739292	      0.04236600	      8.60151841	     -2.41571840	     -6.97127923	      2.58883761	     -0.17554518	      4.77953571	      2.98791015	      0.05214887	      3.92380269	     -0.44564327	     -6.97127923	     -8.36759160	     -1.18534742	      0.58515156	     16.27435430	     -4.68848941	     23.77266380	    131.61795172	    101.27458238	     18.60069557	     -4.81287713	     22.41962231	    125.36640221	     97.23659988
      0.01666670	     -2.37713637	      0.52551792	     -0.20544130	     -0.98703340	      1.29879861	     -0.07796177	      2.59084758	     -2.18373242	      2.65725123	      2.19353133	      0.03828434	      8.73673504	     -2.70473722	     -7.13800647	      2.40892421	     -0.15127550	      4.91650515	      2.44960947	      0.04275375	      3.85133661	     -0.41236699	     -7.13800647	     -8.45720244	     -1.20830064	      0.74512867	     16.02982840	     -4.47396117	     23.83054743	    131.44332658	    104.95464488	     18.83453217	     -4.72029464	     22.68751835	    125.59773350	     95.45732131
      0.02083330	     -2.28366134	      0.53539426	     -0.05485694	     -0.98716018	      1.29911142	     -0.07799333	      2.38089680	     -2.17795004	      2.73716036	      2.10375394	      0.03671743	      8.79927321	     -2.98864819	     -7.19125546	      2.19669077	     -0.12363197	      5.15052834	      2.15909741	      0.03768336	      3.88991576	     -0.36270228	     -7.19125546	     -8.62012338	     -1.31042320	      0.72342309	     16.23635498	     -4.48571527	     24.02090821	    131.35635416	    102.25991046	     19.05737390	     -4.77572976	     23.08109871	    125.99333632	     93.01872574
